<?xml version="1.0" encoding="UTF-8"?>
<svg xmlns="http://www.w3.org/2000/svg" xmlns:xlink="http://www.w3.org/1999/xlink" width="235pt" height="175pt" viewBox="0 0 235 175" version="1.1">
<g id="surface1">
<path style="fill-rule:nonzero;fill:rgb(94.901961%,94.509804%,95.686275%);fill-opacity:1;stroke-width:1;stroke-linecap:round;stroke-linejoin:round;stroke:rgb(50.196078%,50.196078%,50.196078%);stroke-opacity:1;stroke-miterlimit:10;" d="M 102.5 136.8 L 209.16875 136.8 C 213.5875 136.8 217.16875 140.38125 217.16875 144.8 L 217.16875 245.8 C 217.16875 250.21875 213.5875 253.8 209.16875 253.8 L 102.5 253.8 C 98.08125 253.8 94.5 250.21875 94.5 245.8 L 94.5 144.8 C 94.5 140.38125 98.08125 136.8 102.5 136.8 Z M 102.5 136.8 " transform="matrix(1.25,0,0,1.25,-117.5,-143.75)"/>
<path style="fill-rule:nonzero;fill:rgb(40%,74.901961%,100%);fill-opacity:1;stroke-width:1;stroke-linecap:round;stroke-linejoin:round;stroke:rgb(0%,0%,0%);stroke-opacity:1;stroke-miterlimit:10;" d="M 135 219.4 L 151 219.4 L 151 245.4 L 135 245.4 Z M 135 219.4 " transform="matrix(1.25,0,0,1.25,-117.5,-143.75)"/>
<path style="fill-rule:nonzero;fill:rgb(69.803922%,85.098039%,100%);fill-opacity:1;stroke-width:1;stroke-linecap:round;stroke-linejoin:round;stroke:rgb(0%,0%,0%);stroke-opacity:1;stroke-miterlimit:10;" d="M 229 145.10625 L 245 145.10625 L 245 175.10625 L 229 175.10625 Z M 229 145.10625 " transform="matrix(1.25,0,0,1.25,-117.5,-143.75)"/>
<path style="fill:none;stroke-width:1;stroke-linecap:round;stroke-linejoin:round;stroke:rgb(0%,0%,0%);stroke-opacity:1;stroke-miterlimit:10;" d="M 143 219.4 L 143 211.9 " transform="matrix(1.25,0,0,1.25,-117.5,-143.75)"/>
<path style="fill:none;stroke-width:1;stroke-linecap:butt;stroke-linejoin:miter;stroke:rgb(0%,0%,0%);stroke-opacity:1;stroke-miterlimit:10;" d="M 143 207.9 L 143 211.9 M 141.5 211.9 L 143 207.9 L 144.5 211.9 " transform="matrix(1.25,0,0,1.25,-117.5,-143.75)"/>
<path style="fill-rule:nonzero;fill:rgb(100%,100%,100%);fill-opacity:1;stroke-width:1;stroke-linecap:round;stroke-linejoin:round;stroke:rgb(0%,0%,0%);stroke-opacity:1;stroke-miterlimit:10;" d="M 135 190 L 245 190 L 245 206 L 135 206 Z M 135 190 " transform="matrix(1.25,0,0,1.25,-117.5,-143.75)"/>
<path style=" stroke:none;fill-rule:nonzero;fill:rgb(0%,0%,0%);fill-opacity:1;" d="M 97.777344 106.875 L 100.882812 98.828125 L 102.015625 98.828125 L 105.316406 106.875 L 104.105469 106.875 L 103.167969 104.433594 L 99.789062 104.433594 L 98.910156 106.875 Z M 100.101562 103.574219 L 102.835938 103.574219 L 101.996094 101.328125 C 101.730469 100.65625 101.546875 100.097656 101.429688 99.667969 C 101.320312 100.191406 101.175781 100.703125 100.980469 101.210938 Z M 100.101562 103.574219 "/>
<path style=" stroke:none;fill-rule:nonzero;fill:rgb(0%,0%,0%);fill-opacity:1;" d="M 108.210938 105.996094 L 108.347656 106.855469 C 108.058594 106.917969 107.808594 106.953125 107.605469 106.953125 C 107.238281 106.953125 106.960938 106.894531 106.765625 106.777344 C 106.570312 106.660156 106.421875 106.515625 106.335938 106.328125 C 106.257812 106.148438 106.21875 105.761719 106.21875 105.175781 L 106.21875 101.816406 L 105.496094 101.816406 L 105.496094 101.035156 L 106.21875 101.035156 L 106.21875 99.589844 L 107.214844 99.003906 L 107.214844 101.035156 L 108.210938 101.035156 L 108.210938 101.816406 L 107.214844 101.816406 L 107.214844 105.214844 C 107.214844 105.503906 107.222656 105.683594 107.253906 105.761719 C 107.292969 105.839844 107.351562 105.90625 107.429688 105.957031 C 107.507812 106.011719 107.613281 106.035156 107.761719 106.035156 C 107.878906 106.035156 108.023438 106.023438 108.210938 105.996094 Z M 108.210938 105.996094 "/>
<path style=" stroke:none;fill-rule:nonzero;fill:rgb(0%,0%,0%);fill-opacity:1;" d="M 111.335938 105.996094 L 111.472656 106.855469 C 111.183594 106.917969 110.933594 106.953125 110.730469 106.953125 C 110.363281 106.953125 110.085938 106.894531 109.890625 106.777344 C 109.695312 106.660156 109.546875 106.515625 109.460938 106.328125 C 109.382812 106.148438 109.34375 105.761719 109.34375 105.175781 L 109.34375 101.816406 L 108.621094 101.816406 L 108.621094 101.035156 L 109.34375 101.035156 L 109.34375 99.589844 L 110.339844 99.003906 L 110.339844 101.035156 L 111.335938 101.035156 L 111.335938 101.816406 L 110.339844 101.816406 L 110.339844 105.214844 C 110.339844 105.503906 110.347656 105.683594 110.378906 105.761719 C 110.417969 105.839844 110.476562 105.90625 110.554688 105.957031 C 110.632812 106.011719 110.738281 106.035156 110.886719 106.035156 C 111.003906 106.035156 111.148438 106.023438 111.335938 105.996094 Z M 111.335938 105.996094 "/>
<path style=" stroke:none;fill-rule:nonzero;fill:rgb(0%,0%,0%);fill-opacity:1;" d="M 116.277344 105 L 117.3125 105.117188 C 117.140625 105.71875 116.835938 106.1875 116.394531 106.523438 C 115.964844 106.851562 115.410156 107.011719 114.734375 107.011719 C 113.886719 107.011719 113.210938 106.753906 112.703125 106.230469 C 112.207031 105.699219 111.960938 104.957031 111.960938 104.003906 C 111.960938 103.027344 112.214844 102.273438 112.722656 101.738281 C 113.230469 101.191406 113.886719 100.917969 114.695312 100.917969 C 115.476562 100.917969 116.105469 101.1875 116.589844 101.71875 C 117.082031 102.242188 117.332031 102.984375 117.332031 103.945312 C 117.332031 104.015625 117.332031 104.101562 117.332031 104.21875 L 112.976562 104.21875 C 113.015625 104.859375 113.195312 105.347656 113.523438 105.683594 C 113.847656 106.023438 114.257812 106.191406 114.753906 106.191406 C 115.117188 106.191406 115.421875 106.101562 115.671875 105.917969 C 115.929688 105.722656 116.132812 105.421875 116.277344 105 Z M 113.035156 103.398438 L 116.296875 103.398438 C 116.257812 102.90625 116.132812 102.535156 115.925781 102.285156 C 115.613281 101.910156 115.203125 101.71875 114.695312 101.71875 C 114.238281 101.71875 113.855469 101.875 113.542969 102.1875 C 113.242188 102.492188 113.074219 102.890625 113.035156 103.398438 Z M 113.035156 103.398438 "/>
<path style=" stroke:none;fill-rule:nonzero;fill:rgb(0%,0%,0%);fill-opacity:1;" d="M 118.550781 106.875 L 118.550781 101.035156 L 119.449219 101.035156 L 119.449219 101.875 C 119.863281 101.242188 120.484375 100.917969 121.304688 100.917969 C 121.65625 100.917969 121.972656 100.984375 122.261719 101.113281 C 122.558594 101.230469 122.777344 101.398438 122.925781 101.601562 C 123.066406 101.796875 123.167969 102.039062 123.238281 102.324219 C 123.277344 102.507812 123.296875 102.828125 123.296875 103.28125 L 123.296875 106.875 L 122.300781 106.875 L 122.300781 103.320312 C 122.300781 102.921875 122.261719 102.617188 122.183594 102.421875 C 122.105469 102.226562 121.96875 102.070312 121.773438 101.953125 C 121.578125 101.828125 121.347656 101.757812 121.089844 101.757812 C 120.667969 101.757812 120.308594 101.894531 119.996094 102.167969 C 119.691406 102.429688 119.546875 102.9375 119.546875 103.691406 L 119.546875 106.875 Z M 118.550781 106.875 "/>
<path style=" stroke:none;fill-rule:nonzero;fill:rgb(0%,0%,0%);fill-opacity:1;" d="M 126.976562 105.996094 L 127.113281 106.855469 C 126.824219 106.917969 126.574219 106.953125 126.371094 106.953125 C 126.003906 106.953125 125.726562 106.894531 125.53125 106.777344 C 125.335938 106.660156 125.1875 106.515625 125.101562 106.328125 C 125.023438 106.148438 124.984375 105.761719 124.984375 105.175781 L 124.984375 101.816406 L 124.261719 101.816406 L 124.261719 101.035156 L 124.984375 101.035156 L 124.984375 99.589844 L 125.980469 99.003906 L 125.980469 101.035156 L 126.976562 101.035156 L 126.976562 101.816406 L 125.980469 101.816406 L 125.980469 105.214844 C 125.980469 105.503906 125.988281 105.683594 126.019531 105.761719 C 126.058594 105.839844 126.117188 105.90625 126.195312 105.957031 C 126.273438 106.011719 126.378906 106.035156 126.527344 106.035156 C 126.644531 106.035156 126.789062 106.023438 126.976562 105.996094 Z M 126.976562 105.996094 "/>
<path style=" stroke:none;fill-rule:nonzero;fill:rgb(0%,0%,0%);fill-opacity:1;" d="M 127.933594 99.960938 L 127.933594 98.828125 L 128.929688 98.828125 L 128.929688 99.960938 Z M 127.933594 106.875 L 127.933594 101.035156 L 128.929688 101.035156 L 128.929688 106.875 Z M 127.933594 106.875 "/>
<path style=" stroke:none;fill-rule:nonzero;fill:rgb(0%,0%,0%);fill-opacity:1;" d="M 130.0625 103.964844 C 130.0625 102.886719 130.359375 102.085938 130.960938 101.5625 C 131.46875 101.132812 132.078125 100.917969 132.796875 100.917969 C 133.601562 100.917969 134.261719 101.179688 134.769531 101.699219 C 135.277344 102.222656 135.53125 102.945312 135.53125 103.867188 C 135.53125 104.625 135.414062 105.214844 135.179688 105.644531 C 134.953125 106.074219 134.632812 106.414062 134.203125 106.660156 C 133.773438 106.894531 133.304688 107.011719 132.796875 107.011719 C 131.976562 107.011719 131.3125 106.753906 130.804688 106.230469 C 130.304688 105.699219 130.0625 104.941406 130.0625 103.964844 Z M 131.078125 103.964844 C 131.078125 104.707031 131.238281 105.269531 131.566406 105.644531 C 131.886719 106.011719 132.296875 106.191406 132.796875 106.191406 C 133.289062 106.191406 133.699219 106.011719 134.027344 105.644531 C 134.347656 105.269531 134.515625 104.695312 134.515625 103.925781 C 134.515625 103.210938 134.347656 102.664062 134.027344 102.285156 C 133.699219 101.910156 133.289062 101.71875 132.796875 101.71875 C 132.296875 101.71875 131.886719 101.910156 131.566406 102.285156 C 131.238281 102.652344 131.078125 103.210938 131.078125 103.964844 Z M 131.078125 103.964844 "/>
<path style=" stroke:none;fill-rule:nonzero;fill:rgb(0%,0%,0%);fill-opacity:1;" d="M 136.691406 106.875 L 136.691406 101.035156 L 137.589844 101.035156 L 137.589844 101.875 C 138.003906 101.242188 138.625 100.917969 139.445312 100.917969 C 139.796875 100.917969 140.113281 100.984375 140.402344 101.113281 C 140.699219 101.230469 140.917969 101.398438 141.066406 101.601562 C 141.207031 101.796875 141.308594 102.039062 141.378906 102.324219 C 141.417969 102.507812 141.4375 102.828125 141.4375 103.28125 L 141.4375 106.875 L 140.441406 106.875 L 140.441406 103.320312 C 140.441406 102.921875 140.402344 102.617188 140.324219 102.421875 C 140.246094 102.226562 140.109375 102.070312 139.914062 101.953125 C 139.71875 101.828125 139.488281 101.757812 139.230469 101.757812 C 138.808594 101.757812 138.449219 101.894531 138.136719 102.167969 C 137.832031 102.429688 137.6875 102.9375 137.6875 103.691406 L 137.6875 106.875 Z M 136.691406 106.875 "/>
<path style="fill-rule:nonzero;fill:rgb(40%,74.901961%,100%);fill-opacity:1;stroke-width:1;stroke-linecap:round;stroke-linejoin:round;stroke:rgb(0%,0%,0%);stroke-opacity:1;stroke-miterlimit:10;" d="M 161.8 219.4 L 177.8 219.4 L 177.8 245.4 L 161.8 245.4 Z M 161.8 219.4 " transform="matrix(1.25,0,0,1.25,-117.5,-143.75)"/>
<path style="fill:none;stroke-width:1;stroke-linecap:round;stroke-linejoin:round;stroke:rgb(0%,0%,0%);stroke-opacity:1;stroke-miterlimit:10;" d="M 169.8 219.4 L 169.8 211.9 " transform="matrix(1.25,0,0,1.25,-117.5,-143.75)"/>
<path style="fill:none;stroke-width:1;stroke-linecap:butt;stroke-linejoin:miter;stroke:rgb(0%,0%,0%);stroke-opacity:1;stroke-miterlimit:10;" d="M 169.8 207.9 L 169.8 211.9 M 168.3 211.9 L 169.8 207.9 L 171.3 211.9 " transform="matrix(1.25,0,0,1.25,-117.5,-143.75)"/>
<path style="fill-rule:nonzero;fill:rgb(40%,74.901961%,100%);fill-opacity:1;stroke-width:1;stroke-linecap:round;stroke-linejoin:round;stroke:rgb(0%,0%,0%);stroke-opacity:1;stroke-miterlimit:10;" d="M 188.8 219.4 L 204.8 219.4 L 204.8 245.4 L 188.8 245.4 Z M 188.8 219.4 " transform="matrix(1.25,0,0,1.25,-117.5,-143.75)"/>
<path style="fill:none;stroke-width:1;stroke-linecap:round;stroke-linejoin:round;stroke:rgb(0%,0%,0%);stroke-opacity:1;stroke-miterlimit:10;" d="M 196.8 219.4 L 196.8 211.9 " transform="matrix(1.25,0,0,1.25,-117.5,-143.75)"/>
<path style="fill:none;stroke-width:1;stroke-linecap:butt;stroke-linejoin:miter;stroke:rgb(0%,0%,0%);stroke-opacity:1;stroke-miterlimit:10;" d="M 196.8 207.9 L 196.8 211.9 M 195.3 211.9 L 196.8 207.9 L 198.3 211.9 " transform="matrix(1.25,0,0,1.25,-117.5,-143.75)"/>
<path style="fill-rule:nonzero;fill:rgb(40%,74.901961%,100%);fill-opacity:1;stroke-width:1;stroke-linecap:round;stroke-linejoin:round;stroke:rgb(0%,0%,0%);stroke-opacity:1;stroke-miterlimit:10;" d="M 135 145.10625 L 151 145.10625 L 151 175.10625 L 135 175.10625 Z M 135 145.10625 " transform="matrix(1.25,0,0,1.25,-117.5,-143.75)"/>
<path style="fill:none;stroke-width:1;stroke-linecap:round;stroke-linejoin:round;stroke:rgb(0%,0%,0%);stroke-opacity:1;stroke-miterlimit:10;" d="M 143 175.10625 L 143 184.1 " transform="matrix(1.25,0,0,1.25,-117.5,-143.75)"/>
<path style="fill:none;stroke-width:1;stroke-linecap:butt;stroke-linejoin:miter;stroke:rgb(0%,0%,0%);stroke-opacity:1;stroke-miterlimit:10;" d="M 143 188.1 L 143 184.1 M 144.5 184.1 L 143 188.1 L 141.5 184.1 " transform="matrix(1.25,0,0,1.25,-117.5,-143.75)"/>
<path style="fill-rule:nonzero;fill:rgb(40%,74.901961%,100%);fill-opacity:1;stroke-width:1;stroke-linecap:round;stroke-linejoin:round;stroke:rgb(0%,0%,0%);stroke-opacity:1;stroke-miterlimit:10;" d="M 161.9 145.10625 L 177.9 145.10625 L 177.9 175.10625 L 161.9 175.10625 Z M 161.9 145.10625 " transform="matrix(1.25,0,0,1.25,-117.5,-143.75)"/>
<path style="fill-rule:nonzero;fill:rgb(40%,74.901961%,100%);fill-opacity:1;stroke-width:1;stroke-linecap:round;stroke-linejoin:round;stroke:rgb(0%,0%,0%);stroke-opacity:1;stroke-miterlimit:10;" d="M 188.8 145.10625 L 204.8 145.10625 L 204.8 175.10625 L 188.8 175.10625 Z M 188.8 145.10625 " transform="matrix(1.25,0,0,1.25,-117.5,-143.75)"/>
<path style="fill:none;stroke-width:1;stroke-linecap:round;stroke-linejoin:round;stroke:rgb(0%,0%,0%);stroke-opacity:1;stroke-miterlimit:10;" d="M 196.7125 175.10625 L 196.659375 184.1 " transform="matrix(1.25,0,0,1.25,-117.5,-143.75)"/>
<path style="fill:none;stroke-width:1;stroke-linecap:butt;stroke-linejoin:miter;stroke:rgb(0%,0%,0%);stroke-opacity:1;stroke-miterlimit:10;" d="M 196.6375 188.1 L 196.659375 184.1 M 198.159375 184.109375 L 196.6375 188.1 L 195.159375 184.090625 " transform="matrix(1.25,0,0,1.25,-117.5,-143.75)"/>
<path style="fill:none;stroke-width:1;stroke-linecap:round;stroke-linejoin:round;stroke:rgb(0%,0%,0%);stroke-opacity:1;stroke-miterlimit:10;" d="M 169.85 175.10625 L 169.81875 184.1 " transform="matrix(1.25,0,0,1.25,-117.5,-143.75)"/>
<path style="fill:none;stroke-width:1;stroke-linecap:butt;stroke-linejoin:miter;stroke:rgb(0%,0%,0%);stroke-opacity:1;stroke-miterlimit:10;" d="M 169.80625 188.1 L 169.81875 184.1 M 171.31875 184.10625 L 169.80625 188.1 L 168.31875 184.09375 " transform="matrix(1.25,0,0,1.25,-117.5,-143.75)"/>
<path style="fill-rule:nonzero;fill:rgb(69.803922%,85.098039%,100%);fill-opacity:1;stroke-width:1;stroke-linecap:round;stroke-linejoin:round;stroke:rgb(0%,0%,0%);stroke-opacity:1;stroke-miterlimit:10;" d="M 229 219.4 L 245 219.4 L 245 245.4 L 229 245.4 Z M 229 219.4 " transform="matrix(1.25,0,0,1.25,-117.5,-143.75)"/>
<path style=" stroke:none;fill-rule:nonzero;fill:rgb(0%,0%,0%);fill-opacity:1;" d="M 21.75 153 L 21.75 144.953125 L 22.824219 144.953125 L 22.824219 148.9375 L 26.828125 144.953125 L 28.253906 144.953125 L 24.894531 148.214844 L 28.410156 153 L 27.003906 153 L 24.132812 148.917969 L 22.824219 150.207031 L 22.824219 153 Z M 21.75 153 "/>
<path style=" stroke:none;fill-rule:nonzero;fill:rgb(0%,0%,0%);fill-opacity:1;" d="M 33.160156 151.125 L 34.195312 151.242188 C 34.023438 151.84375 33.714844 152.3125 33.277344 152.648438 C 32.847656 152.976562 32.289062 153.136719 31.617188 153.136719 C 30.765625 153.136719 30.09375 152.878906 29.585938 152.355469 C 29.085938 151.824219 28.84375 151.082031 28.84375 150.128906 C 28.84375 149.152344 29.097656 148.398438 29.605469 147.863281 C 30.113281 147.316406 30.765625 147.042969 31.578125 147.042969 C 32.359375 147.042969 32.988281 147.3125 33.472656 147.84375 C 33.964844 148.367188 34.214844 149.109375 34.214844 150.070312 C 34.214844 150.140625 34.214844 150.226562 34.214844 150.34375 L 29.859375 150.34375 C 29.898438 150.984375 30.078125 151.472656 30.40625 151.808594 C 30.726562 152.148438 31.136719 152.316406 31.636719 152.316406 C 31.996094 152.316406 32.304688 152.226562 32.554688 152.042969 C 32.8125 151.847656 33.011719 151.546875 33.160156 151.125 Z M 29.917969 149.523438 L 33.179688 149.523438 C 33.140625 149.03125 33.011719 148.660156 32.808594 148.410156 C 32.496094 148.035156 32.085938 147.84375 31.578125 147.84375 C 31.117188 147.84375 30.738281 148 30.425781 148.3125 C 30.121094 148.617188 29.957031 149.015625 29.917969 149.523438 Z M 29.917969 149.523438 "/>
<path style=" stroke:none;fill-rule:nonzero;fill:rgb(0%,0%,0%);fill-opacity:1;" d="M 35.394531 155.246094 L 35.277344 154.328125 C 35.496094 154.375 35.6875 154.40625 35.84375 154.40625 C 36.0625 154.40625 36.238281 154.367188 36.371094 154.289062 C 36.496094 154.21875 36.609375 154.125 36.703125 153.996094 C 36.75 153.890625 36.847656 153.644531 36.996094 153.253906 C 37.019531 153.199219 37.054688 153.121094 37.09375 153.019531 L 34.867188 147.160156 L 35.941406 147.160156 L 37.152344 150.539062 C 37.308594 150.96875 37.449219 151.417969 37.582031 151.886719 C 37.683594 151.445312 37.816406 151.003906 37.972656 150.558594 L 39.222656 147.160156 L 40.21875 147.160156 L 37.992188 153.097656 C 37.757812 153.734375 37.570312 154.175781 37.445312 154.425781 C 37.257812 154.75 37.058594 154.984375 36.839844 155.128906 C 36.613281 155.285156 36.339844 155.363281 36.019531 155.363281 C 35.832031 155.363281 35.628906 155.324219 35.394531 155.246094 Z M 35.394531 155.246094 "/>
<path style=" stroke:none;fill-rule:nonzero;fill:rgb(0%,0%,0%);fill-opacity:1;" d="M 40.667969 151.261719 L 41.644531 151.105469 C 41.691406 151.496094 41.84375 151.796875 42.09375 152.003906 C 42.351562 152.214844 42.703125 152.316406 43.148438 152.316406 C 43.601562 152.316406 43.9375 152.226562 44.164062 152.042969 C 44.382812 151.863281 44.496094 151.648438 44.496094 151.398438 C 44.496094 151.164062 44.398438 150.988281 44.203125 150.871094 C 44.054688 150.78125 43.71875 150.664062 43.1875 150.519531 C 42.453125 150.339844 41.945312 150.183594 41.664062 150.050781 C 41.390625 149.921875 41.179688 149.738281 41.039062 149.503906 C 40.890625 149.269531 40.824219 149.011719 40.824219 148.722656 C 40.824219 148.464844 40.882812 148.226562 41 148 C 41.117188 147.78125 41.277344 147.589844 41.488281 147.433594 C 41.644531 147.332031 41.847656 147.238281 42.113281 147.160156 C 42.386719 147.082031 42.667969 147.042969 42.972656 147.042969 C 43.425781 147.042969 43.820312 147.109375 44.164062 147.238281 C 44.515625 147.371094 44.773438 147.546875 44.945312 147.765625 C 45.109375 147.992188 45.226562 148.289062 45.296875 148.664062 L 44.320312 148.800781 C 44.28125 148.503906 44.148438 148.269531 43.929688 148.097656 C 43.71875 147.929688 43.425781 147.84375 43.050781 147.84375 C 42.589844 147.84375 42.269531 147.921875 42.074219 148.078125 C 41.878906 148.226562 41.78125 148.398438 41.78125 148.605469 C 41.78125 148.738281 41.820312 148.851562 41.898438 148.9375 C 41.976562 149.054688 42.101562 149.148438 42.289062 149.210938 C 42.375 149.25 42.664062 149.335938 43.148438 149.464844 C 43.851562 149.648438 44.339844 149.796875 44.613281 149.914062 C 44.894531 150.03125 45.121094 150.207031 45.277344 150.441406 C 45.433594 150.664062 45.511719 150.945312 45.511719 151.28125 C 45.511719 151.625 45.414062 151.9375 45.21875 152.21875 C 45.023438 152.507812 44.738281 152.734375 44.378906 152.902344 C 44.027344 153.058594 43.617188 153.136719 43.148438 153.136719 C 42.390625 153.136719 41.808594 152.980469 41.410156 152.667969 C 41.019531 152.34375 40.769531 151.875 40.667969 151.261719 Z M 40.667969 151.261719 "/>
<path style=" stroke:none;fill-rule:nonzero;fill:rgb(0%,0%,0%);fill-opacity:1;" d="M 200.085938 147.761719 C 200.578125 148.101562 201.03125 148.347656 201.453125 148.503906 L 201.140625 149.246094 C 200.554688 149.035156 199.972656 148.703125 199.402344 148.25 C 198.800781 148.589844 198.140625 148.757812 197.429688 148.757812 C 196.695312 148.757812 196.03125 148.582031 195.4375 148.230469 C 194.851562 147.878906 194.390625 147.382812 194.070312 146.746094 C 193.757812 146.109375 193.601562 145.390625 193.601562 144.597656 C 193.601562 143.804688 193.757812 143.082031 194.070312 142.429688 C 194.390625 141.777344 194.855469 141.285156 195.457031 140.945312 C 196.050781 140.59375 196.714844 140.417969 197.449219 140.417969 C 198.191406 140.417969 198.859375 140.601562 199.460938 140.964844 C 200.054688 141.316406 200.515625 141.8125 200.828125 142.449219 C 201.140625 143.074219 201.296875 143.789062 201.296875 144.597656 C 201.296875 145.25 201.1875 145.839844 200.984375 146.375 C 200.789062 146.910156 200.484375 147.371094 200.085938 147.761719 Z M 197.742188 146.394531 C 198.351562 146.5625 198.859375 146.816406 199.265625 147.15625 C 199.890625 146.597656 200.203125 145.742188 200.203125 144.597656 C 200.203125 143.933594 200.089844 143.359375 199.871094 142.878906 C 199.644531 142.398438 199.324219 142.019531 198.894531 141.746094 C 198.464844 141.472656 197.980469 141.335938 197.449219 141.335938 C 196.652344 141.335938 195.992188 141.609375 195.476562 142.15625 C 194.953125 142.703125 194.695312 143.515625 194.695312 144.597656 C 194.695312 145.640625 194.953125 146.441406 195.476562 147 C 195.992188 147.558594 196.652344 147.839844 197.449219 147.839844 C 197.839844 147.839844 198.199219 147.769531 198.542969 147.625 C 198.199219 147.417969 197.847656 147.265625 197.488281 147.175781 Z M 197.742188 146.394531 "/>
<path style=" stroke:none;fill-rule:nonzero;fill:rgb(0%,0%,0%);fill-opacity:1;" d="M 206.433594 148.621094 L 206.433594 147.761719 C 205.972656 148.425781 205.359375 148.757812 204.578125 148.757812 C 204.234375 148.757812 203.917969 148.6875 203.621094 148.5625 C 203.316406 148.417969 203.09375 148.25 202.9375 148.054688 C 202.789062 147.859375 202.691406 147.617188 202.644531 147.332031 C 202.605469 147.136719 202.585938 146.824219 202.585938 146.394531 L 202.585938 142.78125 L 203.5625 142.78125 L 203.5625 146.023438 C 203.5625 146.542969 203.585938 146.890625 203.640625 147.058594 C 203.6875 147.320312 203.816406 147.527344 204.011719 147.683594 C 204.214844 147.828125 204.46875 147.898438 204.773438 147.898438 C 205.070312 147.898438 205.347656 147.828125 205.613281 147.683594 C 205.871094 147.527344 206.050781 147.320312 206.160156 147.058594 C 206.261719 146.796875 206.316406 146.414062 206.316406 145.90625 L 206.316406 142.78125 L 207.3125 142.78125 L 207.3125 148.621094 Z M 206.433594 148.621094 "/>
<path style=" stroke:none;fill-rule:nonzero;fill:rgb(0%,0%,0%);fill-opacity:1;" d="M 212.84375 146.746094 L 213.878906 146.863281 C 213.710938 147.460938 213.402344 147.929688 212.960938 148.269531 C 212.53125 148.59375 211.976562 148.757812 211.300781 148.757812 C 210.453125 148.757812 209.777344 148.496094 209.269531 147.976562 C 208.773438 147.441406 208.527344 146.699219 208.527344 145.75 C 208.527344 144.773438 208.78125 144.019531 209.289062 143.484375 C 209.796875 142.9375 210.453125 142.664062 211.261719 142.664062 C 212.042969 142.664062 212.675781 142.929688 213.15625 143.464844 C 213.652344 143.984375 213.898438 144.726562 213.898438 145.691406 C 213.898438 145.757812 213.898438 145.847656 213.898438 145.964844 L 209.542969 145.964844 C 209.582031 146.601562 209.765625 147.089844 210.089844 147.429688 C 210.414062 147.769531 210.824219 147.9375 211.320312 147.9375 C 211.683594 147.9375 211.992188 147.847656 212.238281 147.664062 C 212.5 147.46875 212.699219 147.164062 212.84375 146.746094 Z M 209.601562 145.144531 L 212.863281 145.144531 C 212.824219 144.648438 212.699219 144.277344 212.492188 144.03125 C 212.179688 143.652344 211.769531 143.464844 211.261719 143.464844 C 210.804688 143.464844 210.421875 143.621094 210.109375 143.933594 C 209.808594 144.234375 209.640625 144.636719 209.601562 145.144531 Z M 209.601562 145.144531 "/>
<path style=" stroke:none;fill-rule:nonzero;fill:rgb(0%,0%,0%);fill-opacity:1;" d="M 215.097656 148.621094 L 215.097656 142.78125 L 215.996094 142.78125 L 215.996094 143.679688 C 216.21875 143.261719 216.425781 142.988281 216.621094 142.859375 C 216.816406 142.730469 217.03125 142.664062 217.265625 142.664062 C 217.589844 142.664062 217.929688 142.769531 218.28125 142.976562 L 217.929688 143.894531 C 217.695312 143.75 217.453125 143.679688 217.207031 143.679688 C 217 143.679688 216.804688 143.746094 216.621094 143.875 C 216.453125 144.003906 216.328125 144.1875 216.25 144.421875 C 216.144531 144.773438 216.09375 145.15625 216.09375 145.574219 L 216.09375 148.621094 Z M 215.097656 148.621094 "/>
<path style=" stroke:none;fill-rule:nonzero;fill:rgb(0%,0%,0%);fill-opacity:1;" d="M 218.824219 150.867188 L 218.707031 149.949219 C 218.929688 149.996094 219.117188 150.027344 219.273438 150.027344 C 219.496094 150.027344 219.671875 149.988281 219.800781 149.910156 C 219.929688 149.839844 220.042969 149.742188 220.132812 149.617188 C 220.183594 149.507812 220.28125 149.265625 220.425781 148.875 C 220.453125 148.820312 220.484375 148.742188 220.523438 148.640625 L 218.296875 142.78125 L 219.371094 142.78125 L 220.582031 146.160156 C 220.738281 146.589844 220.882812 147.039062 221.011719 147.507812 C 221.117188 147.066406 221.246094 146.621094 221.402344 146.179688 L 222.652344 142.78125 L 223.648438 142.78125 L 221.421875 148.71875 C 221.1875 149.351562 221.003906 149.796875 220.875 150.046875 C 220.691406 150.367188 220.492188 150.601562 220.269531 150.75 C 220.046875 150.90625 219.773438 150.984375 219.449219 150.984375 C 219.265625 150.984375 219.058594 150.945312 218.824219 150.867188 Z M 218.824219 150.867188 "/>
<path style=" stroke:none;fill-rule:nonzero;fill:rgb(0%,0%,0%);fill-opacity:1;" d="M 15.121094 59.503906 L 12.015625 51.457031 L 13.167969 51.457031 L 15.257812 57.296875 C 15.425781 57.765625 15.5625 58.210938 15.667969 58.625 C 15.796875 58.1875 15.949219 57.742188 16.117188 57.296875 L 18.285156 51.457031 L 19.378906 51.457031 L 16.214844 59.503906 Z M 15.121094 59.503906 "/>
<path style=" stroke:none;fill-rule:nonzero;fill:rgb(0%,0%,0%);fill-opacity:1;" d="M 23.179688 58.78125 C 22.8125 59.09375 22.460938 59.320312 22.125 59.445312 C 21.78125 59.574219 21.421875 59.640625 21.03125 59.640625 C 20.390625 59.640625 19.898438 59.484375 19.546875 59.171875 C 19.203125 58.859375 19.039062 58.460938 19.039062 57.960938 C 19.039062 57.679688 19.101562 57.414062 19.234375 57.179688 C 19.359375 56.945312 19.53125 56.761719 19.742188 56.613281 C 19.945312 56.472656 20.179688 56.359375 20.445312 56.28125 C 20.640625 56.242188 20.933594 56.199219 21.324219 56.144531 C 22.128906 56.058594 22.71875 55.941406 23.101562 55.792969 C 23.101562 55.667969 23.101562 55.578125 23.101562 55.539062 C 23.101562 55.140625 23.007812 54.855469 22.828125 54.699219 C 22.5625 54.464844 22.1875 54.347656 21.695312 54.347656 C 21.226562 54.347656 20.878906 54.4375 20.660156 54.601562 C 20.433594 54.757812 20.273438 55.046875 20.171875 55.460938 L 19.214844 55.34375 C 19.292969 54.929688 19.429688 54.597656 19.625 54.347656 C 19.828125 54.089844 20.121094 53.894531 20.503906 53.761719 C 20.894531 53.621094 21.332031 53.546875 21.832031 53.546875 C 22.339844 53.546875 22.738281 53.605469 23.042969 53.722656 C 23.355469 53.839844 23.578125 53.992188 23.726562 54.171875 C 23.882812 54.34375 23.984375 54.5625 24.039062 54.835938 C 24.078125 55.007812 24.097656 55.304688 24.097656 55.734375 L 24.097656 57.0625 C 24.097656 57.976562 24.117188 58.558594 24.15625 58.800781 C 24.195312 59.050781 24.277344 59.285156 24.410156 59.503906 L 23.375 59.503906 C 23.265625 59.300781 23.203125 59.054688 23.179688 58.78125 Z M 23.101562 56.574219 C 22.734375 56.722656 22.191406 56.84375 21.480469 56.945312 C 21.074219 57.015625 20.785156 57.082031 20.621094 57.160156 C 20.449219 57.230469 20.316406 57.332031 20.230469 57.472656 C 20.136719 57.621094 20.09375 57.777344 20.09375 57.941406 C 20.09375 58.207031 20.191406 58.425781 20.386719 58.605469 C 20.582031 58.777344 20.875 58.859375 21.265625 58.859375 C 21.640625 58.859375 21.976562 58.777344 22.28125 58.605469 C 22.578125 58.441406 22.796875 58.210938 22.945312 57.921875 C 23.046875 57.703125 23.101562 57.375 23.101562 56.945312 Z M 23.101562 56.574219 "/>
<path style=" stroke:none;fill-rule:nonzero;fill:rgb(0%,0%,0%);fill-opacity:1;" d="M 25.601562 59.503906 L 25.601562 51.457031 L 26.578125 51.457031 L 26.578125 59.503906 Z M 25.601562 59.503906 "/>
<path style=" stroke:none;fill-rule:nonzero;fill:rgb(0%,0%,0%);fill-opacity:1;" d="M 31.945312 59.503906 L 31.945312 58.644531 C 31.488281 59.308594 30.871094 59.640625 30.089844 59.640625 C 29.75 59.640625 29.429688 59.574219 29.132812 59.445312 C 28.832031 59.304688 28.605469 59.132812 28.449219 58.9375 C 28.304688 58.742188 28.207031 58.503906 28.15625 58.214844 C 28.117188 58.019531 28.097656 57.707031 28.097656 57.277344 L 28.097656 53.664062 L 29.074219 53.664062 L 29.074219 56.90625 C 29.074219 57.429688 29.097656 57.777344 29.152344 57.941406 C 29.203125 58.207031 29.328125 58.410156 29.523438 58.566406 C 29.730469 58.714844 29.984375 58.78125 30.285156 58.78125 C 30.582031 58.78125 30.863281 58.714844 31.125 58.566406 C 31.382812 58.410156 31.566406 58.207031 31.671875 57.941406 C 31.773438 57.683594 31.828125 57.296875 31.828125 56.789062 L 31.828125 53.664062 L 32.824219 53.664062 L 32.824219 59.503906 Z M 31.945312 59.503906 "/>
<path style=" stroke:none;fill-rule:nonzero;fill:rgb(0%,0%,0%);fill-opacity:1;" d="M 38.355469 57.628906 L 39.390625 57.746094 C 39.21875 58.347656 38.910156 58.816406 38.472656 59.152344 C 38.042969 59.480469 37.484375 59.640625 36.8125 59.640625 C 35.960938 59.640625 35.289062 59.382812 34.78125 58.859375 C 34.28125 58.328125 34.039062 57.585938 34.039062 56.632812 C 34.039062 55.65625 34.292969 54.90625 34.800781 54.367188 C 35.308594 53.820312 35.960938 53.546875 36.773438 53.546875 C 37.554688 53.546875 38.183594 53.816406 38.667969 54.347656 C 39.160156 54.871094 39.410156 55.613281 39.410156 56.574219 C 39.410156 56.644531 39.410156 56.730469 39.410156 56.847656 L 35.054688 56.847656 C 35.09375 57.488281 35.273438 57.976562 35.601562 58.3125 C 35.921875 58.65625 36.332031 58.820312 36.832031 58.820312 C 37.191406 58.820312 37.5 58.734375 37.75 58.546875 C 38.007812 58.351562 38.207031 58.050781 38.355469 57.628906 Z M 35.113281 56.027344 L 38.375 56.027344 C 38.335938 55.535156 38.207031 55.164062 38.003906 54.914062 C 37.691406 54.539062 37.28125 54.347656 36.773438 54.347656 C 36.3125 54.347656 35.933594 54.503906 35.621094 54.816406 C 35.316406 55.121094 35.152344 55.519531 35.113281 56.027344 Z M 35.113281 56.027344 "/>
<path style=" stroke:none;fill-rule:nonzero;fill:rgb(0%,0%,0%);fill-opacity:1;" d="M 40.234375 57.765625 L 41.210938 57.609375 C 41.257812 58 41.410156 58.304688 41.660156 58.507812 C 41.917969 58.71875 42.269531 58.820312 42.714844 58.820312 C 43.167969 58.820312 43.503906 58.734375 43.730469 58.546875 C 43.949219 58.367188 44.0625 58.152344 44.0625 57.902344 C 44.0625 57.667969 43.964844 57.492188 43.769531 57.375 C 43.621094 57.289062 43.285156 57.171875 42.753906 57.023438 C 42.019531 56.84375 41.511719 56.6875 41.230469 56.554688 C 40.957031 56.429688 40.746094 56.242188 40.605469 56.007812 C 40.457031 55.773438 40.390625 55.515625 40.390625 55.226562 C 40.390625 54.96875 40.449219 54.730469 40.566406 54.503906 C 40.683594 54.285156 40.84375 54.09375 41.054688 53.9375 C 41.210938 53.835938 41.414062 53.742188 41.679688 53.664062 C 41.953125 53.585938 42.234375 53.546875 42.539062 53.546875 C 42.992188 53.546875 43.386719 53.617188 43.730469 53.742188 C 44.082031 53.875 44.339844 54.050781 44.511719 54.269531 C 44.675781 54.496094 44.792969 54.792969 44.863281 55.167969 L 43.886719 55.304688 C 43.847656 55.007812 43.714844 54.773438 43.496094 54.601562 C 43.285156 54.4375 42.992188 54.347656 42.617188 54.347656 C 42.15625 54.347656 41.835938 54.425781 41.640625 54.582031 C 41.445312 54.730469 41.347656 54.90625 41.347656 55.109375 C 41.347656 55.242188 41.386719 55.355469 41.464844 55.441406 C 41.542969 55.558594 41.667969 55.652344 41.855469 55.714844 C 41.941406 55.753906 42.230469 55.84375 42.714844 55.96875 C 43.417969 56.15625 43.90625 56.300781 44.179688 56.417969 C 44.460938 56.535156 44.6875 56.710938 44.84375 56.945312 C 45 57.171875 45.078125 57.449219 45.078125 57.785156 C 45.078125 58.128906 44.980469 58.441406 44.785156 58.722656 C 44.589844 59.011719 44.304688 59.242188 43.945312 59.40625 C 43.59375 59.5625 43.183594 59.640625 42.714844 59.640625 C 41.957031 59.640625 41.375 59.484375 40.976562 59.171875 C 40.585938 58.851562 40.335938 58.382812 40.234375 57.765625 Z M 40.234375 57.765625 "/>
<path style=" stroke:none;fill-rule:nonzero;fill:rgb(0%,0%,0%);fill-opacity:1;" d="M 194.300781 55.578125 C 194.300781 54.25 194.65625 53.210938 195.375 52.453125 C 196.085938 51.6875 197.015625 51.300781 198.148438 51.300781 C 198.890625 51.300781 199.558594 51.488281 200.160156 51.847656 C 200.753906 52.199219 201.214844 52.699219 201.527344 53.332031 C 201.839844 53.972656 201.996094 54.691406 201.996094 55.480469 C 201.996094 56.300781 201.828125 57.039062 201.507812 57.6875 C 201.179688 58.328125 200.710938 58.816406 200.101562 59.152344 C 199.5 59.480469 198.851562 59.640625 198.148438 59.640625 C 197.390625 59.640625 196.710938 59.460938 196.117188 59.09375 C 195.515625 58.734375 195.0625 58.230469 194.75 57.589844 C 194.445312 56.957031 194.300781 56.28125 194.300781 55.578125 Z M 195.394531 55.597656 C 195.394531 56.574219 195.652344 57.347656 196.175781 57.902344 C 196.691406 58.449219 197.351562 58.722656 198.148438 58.722656 C 198.9375 58.722656 199.597656 58.445312 200.121094 57.882812 C 200.636719 57.328125 200.902344 56.527344 200.902344 55.480469 C 200.902344 54.832031 200.789062 54.265625 200.570312 53.78125 C 200.34375 53.289062 200.023438 52.902344 199.59375 52.628906 C 199.164062 52.355469 198.683594 52.21875 198.167969 52.21875 C 197.410156 52.21875 196.761719 52.484375 196.214844 53 C 195.667969 53.523438 195.394531 54.386719 195.394531 55.597656 Z M 195.394531 55.597656 "/>
<path style=" stroke:none;fill-rule:nonzero;fill:rgb(0%,0%,0%);fill-opacity:1;" d="M 207.074219 59.503906 L 207.074219 58.644531 C 206.613281 59.308594 206 59.640625 205.21875 59.640625 C 204.875 59.640625 204.558594 59.574219 204.261719 59.445312 C 203.957031 59.304688 203.734375 59.132812 203.578125 58.9375 C 203.429688 58.742188 203.332031 58.503906 203.285156 58.214844 C 203.246094 58.019531 203.226562 57.707031 203.226562 57.277344 L 203.226562 53.664062 L 204.203125 53.664062 L 204.203125 56.90625 C 204.203125 57.429688 204.226562 57.777344 204.28125 57.941406 C 204.328125 58.207031 204.457031 58.410156 204.652344 58.566406 C 204.855469 58.714844 205.109375 58.78125 205.414062 58.78125 C 205.710938 58.78125 205.988281 58.714844 206.253906 58.566406 C 206.511719 58.410156 206.691406 58.207031 206.800781 57.941406 C 206.902344 57.683594 206.957031 57.296875 206.957031 56.789062 L 206.957031 53.664062 L 207.953125 53.664062 L 207.953125 59.503906 Z M 207.074219 59.503906 "/>
<path style=" stroke:none;fill-rule:nonzero;fill:rgb(0%,0%,0%);fill-opacity:1;" d="M 211.667969 58.625 L 211.804688 59.484375 C 211.515625 59.550781 211.265625 59.582031 211.0625 59.582031 C 210.695312 59.582031 210.417969 59.523438 210.222656 59.40625 C 210.027344 59.289062 209.878906 59.144531 209.792969 58.957031 C 209.714844 58.777344 209.675781 58.390625 209.675781 57.804688 L 209.675781 54.445312 L 208.953125 54.445312 L 208.953125 53.664062 L 209.675781 53.664062 L 209.675781 52.21875 L 210.671875 51.632812 L 210.671875 53.664062 L 211.667969 53.664062 L 211.667969 54.445312 L 210.671875 54.445312 L 210.671875 57.84375 C 210.671875 58.132812 210.679688 58.3125 210.710938 58.390625 C 210.75 58.46875 210.808594 58.539062 210.886719 58.585938 C 210.964844 58.640625 211.070312 58.664062 211.21875 58.664062 C 211.335938 58.664062 211.480469 58.65625 211.667969 58.625 Z M 211.667969 58.625 "/>
<path style=" stroke:none;fill-rule:nonzero;fill:rgb(0%,0%,0%);fill-opacity:1;" d="M 212.625 61.730469 L 212.625 53.664062 L 213.523438 53.664062 L 213.523438 54.425781 C 213.726562 54.128906 213.960938 53.910156 214.226562 53.761719 C 214.5 53.621094 214.832031 53.546875 215.222656 53.546875 C 215.714844 53.546875 216.148438 53.679688 216.53125 53.9375 C 216.90625 54.1875 217.195312 54.542969 217.390625 55.011719 C 217.585938 55.480469 217.683594 55.988281 217.683594 56.535156 C 217.683594 57.136719 217.570312 57.679688 217.351562 58.15625 C 217.140625 58.640625 216.832031 59.011719 216.433594 59.269531 C 216.027344 59.515625 215.597656 59.640625 215.144531 59.640625 C 214.816406 59.640625 214.523438 59.570312 214.265625 59.425781 C 214 59.285156 213.785156 59.109375 213.621094 58.898438 L 213.621094 61.730469 Z M 213.523438 56.613281 C 213.523438 57.371094 213.667969 57.933594 213.972656 58.292969 C 214.285156 58.644531 214.65625 58.820312 215.085938 58.820312 C 215.515625 58.820312 215.886719 58.640625 216.199219 58.273438 C 216.519531 57.898438 216.6875 57.316406 216.6875 56.535156 C 216.6875 55.792969 216.53125 55.242188 216.21875 54.875 C 215.914062 54.5 215.554688 54.308594 215.125 54.308594 C 214.703125 54.308594 214.332031 54.515625 214.011719 54.914062 C 213.683594 55.304688 213.523438 55.871094 213.523438 56.613281 Z M 213.523438 56.613281 "/>
<path style=" stroke:none;fill-rule:nonzero;fill:rgb(0%,0%,0%);fill-opacity:1;" d="M 222.703125 59.503906 L 222.703125 58.644531 C 222.246094 59.308594 221.628906 59.640625 220.847656 59.640625 C 220.507812 59.640625 220.191406 59.574219 219.890625 59.445312 C 219.589844 59.304688 219.363281 59.132812 219.207031 58.9375 C 219.0625 58.742188 218.964844 58.503906 218.914062 58.214844 C 218.875 58.019531 218.855469 57.707031 218.855469 57.277344 L 218.855469 53.664062 L 219.832031 53.664062 L 219.832031 56.90625 C 219.832031 57.429688 219.859375 57.777344 219.910156 57.941406 C 219.960938 58.207031 220.085938 58.410156 220.28125 58.566406 C 220.488281 58.714844 220.742188 58.78125 221.042969 58.78125 C 221.34375 58.78125 221.621094 58.714844 221.882812 58.566406 C 222.144531 58.410156 222.324219 58.207031 222.429688 57.941406 C 222.535156 57.683594 222.585938 57.296875 222.585938 56.789062 L 222.585938 53.664062 L 223.582031 53.664062 L 223.582031 59.503906 Z M 222.703125 59.503906 "/>
<path style=" stroke:none;fill-rule:nonzero;fill:rgb(0%,0%,0%);fill-opacity:1;" d="M 227.296875 58.625 L 227.433594 59.484375 C 227.144531 59.550781 226.898438 59.582031 226.691406 59.582031 C 226.324219 59.582031 226.046875 59.523438 225.851562 59.40625 C 225.65625 59.289062 225.511719 59.144531 225.421875 58.957031 C 225.34375 58.777344 225.304688 58.390625 225.304688 57.804688 L 225.304688 54.445312 L 224.582031 54.445312 L 224.582031 53.664062 L 225.304688 53.664062 L 225.304688 52.21875 L 226.300781 51.632812 L 226.300781 53.664062 L 227.296875 53.664062 L 227.296875 54.445312 L 226.300781 54.445312 L 226.300781 57.84375 C 226.300781 58.132812 226.3125 58.3125 226.339844 58.390625 C 226.378906 58.46875 226.4375 58.539062 226.515625 58.585938 C 226.59375 58.640625 226.703125 58.664062 226.847656 58.664062 C 226.964844 58.664062 227.113281 58.65625 227.296875 58.625 Z M 227.296875 58.625 "/>
<path style="fill:none;stroke-width:1;stroke-linecap:round;stroke-linejoin:round;stroke:rgb(0%,0%,0%);stroke-opacity:1;stroke-miterlimit:10;" d="M 237 219.4 L 237 211.9 " transform="matrix(1.25,0,0,1.25,-117.5,-143.75)"/>
<path style="fill:none;stroke-width:1;stroke-linecap:butt;stroke-linejoin:miter;stroke:rgb(0%,0%,0%);stroke-opacity:1;stroke-miterlimit:10;" d="M 237 207.9 L 237 211.9 M 235.5 211.9 L 237 207.9 L 238.5 211.9 " transform="matrix(1.25,0,0,1.25,-117.5,-143.75)"/>
<path style="fill:none;stroke-width:1;stroke-linecap:round;stroke-linejoin:round;stroke:rgb(0%,0%,0%);stroke-opacity:1;stroke-miterlimit:10;" d="M 237.125 190 L 237.0875 181.003125 " transform="matrix(1.25,0,0,1.25,-117.5,-143.75)"/>
<path style="fill:none;stroke-width:1;stroke-linecap:butt;stroke-linejoin:miter;stroke:rgb(0%,0%,0%);stroke-opacity:1;stroke-miterlimit:10;" d="M 237.06875 177.003125 L 237.0875 181.003125 M 235.5875 181.0125 L 237.06875 177.003125 L 238.5875 180.996875 " transform="matrix(1.25,0,0,1.25,-117.5,-143.75)"/>
<path style=" stroke:none;fill-rule:nonzero;fill:rgb(0%,0%,0%);fill-opacity:1;" d="M 58.835938 17.25 L 58.835938 9.203125 L 60.4375 9.203125 L 62.332031 14.90625 C 62.515625 15.429688 62.644531 15.824219 62.722656 16.097656 C 62.8125 15.800781 62.957031 15.371094 63.152344 14.808594 L 65.085938 9.203125 L 66.511719 9.203125 L 66.511719 17.25 L 65.496094 17.25 L 65.496094 10.511719 L 63.152344 17.25 L 62.195312 17.25 L 59.851562 10.394531 L 59.851562 17.25 Z M 58.835938 17.25 "/>
<path style=" stroke:none;fill-rule:nonzero;fill:rgb(0%,0%,0%);fill-opacity:1;" d="M 72.09375 15.375 L 73.128906 15.492188 C 72.960938 16.09375 72.652344 16.5625 72.210938 16.898438 C 71.78125 17.226562 71.226562 17.386719 70.550781 17.386719 C 69.703125 17.386719 69.027344 17.128906 68.519531 16.605469 C 68.023438 16.074219 67.777344 15.332031 67.777344 14.378906 C 67.777344 13.402344 68.03125 12.648438 68.539062 12.113281 C 69.046875 11.566406 69.703125 11.292969 70.511719 11.292969 C 71.292969 11.292969 71.925781 11.5625 72.40625 12.09375 C 72.902344 12.617188 73.148438 13.359375 73.148438 14.320312 C 73.148438 14.390625 73.148438 14.476562 73.148438 14.59375 L 68.792969 14.59375 C 68.832031 15.234375 69.015625 15.722656 69.339844 16.058594 C 69.664062 16.398438 70.074219 16.566406 70.570312 16.566406 C 70.933594 16.566406 71.242188 16.476562 71.488281 16.292969 C 71.75 16.097656 71.949219 15.796875 72.09375 15.375 Z M 68.851562 13.773438 L 72.113281 13.773438 C 72.074219 13.28125 71.949219 12.910156 71.742188 12.660156 C 71.429688 12.285156 71.019531 12.09375 70.511719 12.09375 C 70.054688 12.09375 69.671875 12.25 69.359375 12.5625 C 69.058594 12.867188 68.890625 13.265625 68.851562 13.773438 Z M 68.851562 13.773438 "/>
<path style=" stroke:none;fill-rule:nonzero;fill:rgb(0%,0%,0%);fill-opacity:1;" d="M 74.367188 17.25 L 74.367188 11.410156 L 75.246094 11.410156 L 75.246094 12.230469 C 75.429688 11.945312 75.667969 11.71875 75.96875 11.546875 C 76.28125 11.382812 76.632812 11.292969 77.023438 11.292969 C 77.453125 11.292969 77.804688 11.386719 78.078125 11.566406 C 78.351562 11.738281 78.546875 11.984375 78.664062 12.308594 C 79.132812 11.632812 79.730469 11.292969 80.460938 11.292969 C 81.046875 11.292969 81.496094 11.460938 81.808594 11.78125 C 82.121094 12.09375 82.277344 12.582031 82.277344 13.246094 L 82.277344 17.25 L 81.28125 17.25 L 81.28125 13.578125 C 81.28125 13.179688 81.25 12.890625 81.183594 12.71875 C 81.132812 12.554688 81.019531 12.414062 80.851562 12.308594 C 80.683594 12.191406 80.480469 12.132812 80.246094 12.132812 C 79.84375 12.132812 79.503906 12.269531 79.230469 12.542969 C 78.957031 12.816406 78.820312 13.257812 78.820312 13.851562 L 78.820312 17.25 L 77.824219 17.25 L 77.824219 13.460938 C 77.824219 13.023438 77.746094 12.6875 77.589844 12.464844 C 77.433594 12.246094 77.171875 12.132812 76.808594 12.132812 C 76.523438 12.132812 76.261719 12.210938 76.027344 12.367188 C 75.792969 12.515625 75.625 12.726562 75.519531 13.011719 C 75.414062 13.285156 75.363281 13.691406 75.363281 14.222656 L 75.363281 17.25 Z M 74.367188 17.25 "/>
<path style=" stroke:none;fill-rule:nonzero;fill:rgb(0%,0%,0%);fill-opacity:1;" d="M 83.367188 14.339844 C 83.367188 13.261719 83.667969 12.460938 84.265625 11.9375 C 84.773438 11.507812 85.386719 11.292969 86.101562 11.292969 C 86.910156 11.292969 87.566406 11.554688 88.074219 12.074219 C 88.582031 12.597656 88.835938 13.320312 88.835938 14.242188 C 88.835938 15 88.71875 15.589844 88.484375 16.019531 C 88.261719 16.449219 87.9375 16.789062 87.507812 17.035156 C 87.078125 17.269531 86.609375 17.386719 86.101562 17.386719 C 85.28125 17.386719 84.617188 17.128906 84.109375 16.605469 C 83.613281 16.074219 83.367188 15.316406 83.367188 14.339844 Z M 84.382812 14.339844 C 84.382812 15.082031 84.546875 15.644531 84.871094 16.019531 C 85.195312 16.386719 85.605469 16.566406 86.101562 16.566406 C 86.597656 16.566406 87.007812 16.386719 87.332031 16.019531 C 87.65625 15.644531 87.820312 15.070312 87.820312 14.300781 C 87.820312 13.585938 87.65625 13.039062 87.332031 12.660156 C 87.007812 12.285156 86.597656 12.09375 86.101562 12.09375 C 85.605469 12.09375 85.195312 12.285156 84.871094 12.660156 C 84.546875 13.027344 84.382812 13.585938 84.382812 14.339844 Z M 84.382812 14.339844 "/>
<path style=" stroke:none;fill-rule:nonzero;fill:rgb(0%,0%,0%);fill-opacity:1;" d="M 89.976562 17.25 L 89.976562 11.410156 L 90.875 11.410156 L 90.875 12.308594 C 91.09375 11.894531 91.304688 11.621094 91.5 11.488281 C 91.695312 11.359375 91.910156 11.292969 92.144531 11.292969 C 92.46875 11.292969 92.808594 11.398438 93.160156 11.605469 L 92.808594 12.523438 C 92.574219 12.382812 92.332031 12.308594 92.085938 12.308594 C 91.875 12.308594 91.679688 12.375 91.5 12.503906 C 91.328125 12.636719 91.207031 12.816406 91.128906 13.050781 C 91.023438 13.402344 90.972656 13.789062 90.972656 14.203125 L 90.972656 17.25 Z M 89.976562 17.25 "/>
<path style=" stroke:none;fill-rule:nonzero;fill:rgb(0%,0%,0%);fill-opacity:1;" d="M 93.703125 19.496094 L 93.585938 18.578125 C 93.804688 18.625 93.996094 18.65625 94.152344 18.65625 C 94.371094 18.65625 94.546875 18.617188 94.679688 18.539062 C 94.808594 18.46875 94.917969 18.375 95.011719 18.246094 C 95.0625 18.140625 95.160156 17.894531 95.304688 17.503906 C 95.328125 17.449219 95.363281 17.371094 95.402344 17.269531 L 93.175781 11.410156 L 94.25 11.410156 L 95.460938 14.789062 C 95.617188 15.21875 95.757812 15.667969 95.890625 16.136719 C 95.992188 15.695312 96.125 15.253906 96.28125 14.808594 L 97.53125 11.410156 L 98.527344 11.410156 L 96.300781 17.347656 C 96.066406 17.984375 95.882812 18.425781 95.753906 18.675781 C 95.570312 19 95.367188 19.234375 95.148438 19.378906 C 94.925781 19.535156 94.652344 19.613281 94.328125 19.613281 C 94.144531 19.613281 93.9375 19.574219 93.703125 19.496094 Z M 93.703125 19.496094 "/>
</g>
</svg>
